<svg xmlns="http://www.w3.org/2000/svg" xmlns:xlink="http://www.w3.org/1999/xlink" viewBox="0 0 764.41 207.03"><defs><style>.cls-1{fill:url(#Degradado_sin_nombre_125);}.cls-2{fill:url(#Degradado_sin_nombre_125-2);}.cls-3{fill:url(#Degradado_sin_nombre_125-3);}.cls-4{fill:url(#Degradado_sin_nombre_125-4);}.cls-5{fill:url(#Degradado_sin_nombre_125-5);}.cls-6{fill:url(#Degradado_sin_nombre_125-6);}.cls-7{fill:url(#Degradado_sin_nombre_125-7);}.cls-8{fill:url(#Degradado_sin_nombre_125-8);}.cls-9{fill:url(#Degradado_sin_nombre_125-9);}.cls-10{fill:url(#Degradado_sin_nombre_125-10);}.cls-11{fill:#5ce0e6;}.cls-12{fill:url(#Degradado_sin_nombre_125-11);}.cls-13{fill:url(#Degradado_sin_nombre_125-12);}.cls-14{fill:url(#Degradado_sin_nombre_125-13);}.cls-15{fill:url(#Degradado_sin_nombre_125-14);}.cls-16{fill:url(#Degradado_sin_nombre_125-15);}.cls-17{fill:url(#Degradado_sin_nombre_125-16);}.cls-18{fill:url(#Degradado_sin_nombre_125-17);}.cls-19{fill:url(#Degradado_sin_nombre_125-18);}.cls-20{fill:url(#Degradado_sin_nombre_125-19);}.cls-21{fill:url(#Degradado_sin_nombre_125-20);}</style><linearGradient id="Degradado_sin_nombre_125" x1="833.79" y1="222.85" x2="671.07" y2="136.76" gradientUnits="userSpaceOnUse"><stop offset="0" stop-color="#f0f"/><stop offset="1" stop-color="#5ce1e6"/></linearGradient><linearGradient id="Degradado_sin_nombre_125-2" x1="807.82" y1="153.86" x2="704.99" y2="99.46" xlink:href="#Degradado_sin_nombre_125"/><linearGradient id="Degradado_sin_nombre_125-3" x1="765.62" y1="180.87" x2="709.78" y2="163.87" xlink:href="#Degradado_sin_nombre_125"/><linearGradient id="Degradado_sin_nombre_125-4" x1="769.19" y1="169.11" x2="713.35" y2="152.12" xlink:href="#Degradado_sin_nombre_125"/><linearGradient id="Degradado_sin_nombre_125-5" x1="-59.41" y1="147.1" x2="593.18" y2="155.8" xlink:href="#Degradado_sin_nombre_125"/><linearGradient id="Degradado_sin_nombre_125-6" x1="-59.55" y1="157.78" x2="593.04" y2="166.48" xlink:href="#Degradado_sin_nombre_125"/><linearGradient id="Degradado_sin_nombre_125-7" x1="-59.33" y1="141.3" x2="593.26" y2="150" xlink:href="#Degradado_sin_nombre_125"/><linearGradient id="Degradado_sin_nombre_125-8" x1="-59.29" y1="138.06" x2="593.3" y2="146.76" xlink:href="#Degradado_sin_nombre_125"/><linearGradient id="Degradado_sin_nombre_125-9" x1="-59.26" y1="135.41" x2="593.34" y2="144.11" xlink:href="#Degradado_sin_nombre_125"/><linearGradient id="Degradado_sin_nombre_125-10" x1="-59.25" y1="135.22" x2="593.34" y2="143.92" xlink:href="#Degradado_sin_nombre_125"/><linearGradient id="Degradado_sin_nombre_125-11" x1="8.52" y1="31.81" x2="517.76" y2="-34.72" xlink:href="#Degradado_sin_nombre_125"/><linearGradient id="Degradado_sin_nombre_125-12" x1="10.59" y1="47.68" x2="519.83" y2="-18.85" xlink:href="#Degradado_sin_nombre_125"/><linearGradient id="Degradado_sin_nombre_125-13" x1="11.5" y1="54.64" x2="520.74" y2="-11.89" xlink:href="#Degradado_sin_nombre_125"/><linearGradient id="Degradado_sin_nombre_125-14" x1="12.69" y1="63.77" x2="521.94" y2="-2.76" xlink:href="#Degradado_sin_nombre_125"/><linearGradient id="Degradado_sin_nombre_125-15" x1="13.29" y1="68.34" x2="522.53" y2="1.82" xlink:href="#Degradado_sin_nombre_125"/><linearGradient id="Degradado_sin_nombre_125-16" x1="14.1" y1="74.57" x2="523.35" y2="8.04" xlink:href="#Degradado_sin_nombre_125"/><linearGradient id="Degradado_sin_nombre_125-17" x1="14.16" y1="74.97" x2="523.4" y2="8.45" xlink:href="#Degradado_sin_nombre_125"/><linearGradient id="Degradado_sin_nombre_125-18" x1="15.1" y1="82.18" x2="524.34" y2="15.66" xlink:href="#Degradado_sin_nombre_125"/><linearGradient id="Degradado_sin_nombre_125-19" x1="17.89" y1="103.51" x2="527.13" y2="36.99" xlink:href="#Degradado_sin_nombre_125"/><linearGradient id="Degradado_sin_nombre_125-20" x1="17.71" y1="102.15" x2="526.95" y2="35.63" xlink:href="#Degradado_sin_nombre_125"/></defs><title>Recurso 40</title><g id="Capa_2" data-name="Capa 2"><g id="Capa_1-2" data-name="Capa 1"><path class="cls-1" d="M763.49,126.41a1.7,1.7,0,0,0-2.52,1.37c0,.56,0,1.13,0,1.7,0,11.91,0,47.81,0,59.72a9.7,9.7,0,0,1-.47,3,15.3,15.3,0,0,1-3.33,6.15A15.68,15.68,0,0,1,745,203.5c-16.12.14-32.24.07-48.36,0a13.29,13.29,0,0,1-4.59-.64c-3.13-1.16-6-2.58-8.18-5.52a15,15,0,0,1-3.12-9.18c0-16.85,0-33.7-.06-50.55a13.46,13.46,0,0,1,1.3-5.55c2.65-6.07,7.63-9,14-9.17,10-.24,12.09-.07,22.13-.07,2.35,0,4.7,0,7.05,0,.64,0,1.21-.15,1.4-.68a1.88,1.88,0,0,0-.3-2,2.42,2.42,0,0,0-2.13-.77c-12.39,0-16.79,0-29.18,0a12.1,12.1,0,0,0-3.88.59c-4.36,1.54-8.24,3.82-10.8,7.85a18.08,18.08,0,0,0-3,10.19c.11,8.26,0,16.52,0,24.79,0,8.5,0,17,0,25.52a18.83,18.83,0,0,0,2.93,10,16.63,16.63,0,0,0,5.85,5.64c1.21.72,2.63,1.1,3.88,1.77,1.53.82,3.32.41,4.87,1.14a4.53,4.53,0,0,0,1.69,0c13,0,26.08.06,39.13,0,4.22,0,8.46.41,12.69-.39a27.37,27.37,0,0,0,5-1.46,17.52,17.52,0,0,0,9.06-8.48,14.58,14.58,0,0,0,1.92-7c0-12.23,0-48.46,0-60.7a7,7,0,0,1,0-1.45C764.54,126.68,764,126.62,763.49,126.41Z"/><path class="cls-2" d="M760,120.36a2.78,2.78,0,0,0-1-.28c-.79,0-1.61.2-2.33-.3a11.42,11.42,0,0,1-4.07-.91,7.89,7.89,0,0,1-2.54-1.28,6,6,0,0,1-1.64-2.85,22.76,22.76,0,0,1-1.26-6.54,2.3,2.3,0,0,0-.32-1.09c-.15-.23-.51-.34-.77-.51-.08.08-.14.19-.23.22a1.23,1.23,0,0,0-.81,1.33,18.31,18.31,0,0,1-.65,4.49,13.41,13.41,0,0,1-1.32,3.75,3.89,3.89,0,0,1-1.73,1.72,18.43,18.43,0,0,1-5.59,1.72c-.93.14-1.86.22-2.79.27a6.42,6.42,0,0,0-.8.29.73.73,0,0,0-.64.86,1.4,1.4,0,0,0,1,1c.78,0,1.56.19,2.33.26a17.73,17.73,0,0,1,4.52,1,7.93,7.93,0,0,1,2.65,1.39,5.85,5.85,0,0,1,1.73,2.67,21,21,0,0,1,1,3.89,13.12,13.12,0,0,1,.36,3.25c-.06.35.53,1,.89,1.07s.63-.18.91-.41a1.13,1.13,0,0,0,.34-.95,20.6,20.6,0,0,1,.36-3.69,12.23,12.23,0,0,1,.54-1.92c.27-.65.34-1.4.65-2a6,6,0,0,1,1.38-2,7.25,7.25,0,0,1,2.27-1.15,28.22,28.22,0,0,1,4-1c1.07-.19,2.16-.22,3.25-.33a1.44,1.44,0,0,0,1-.94C760.81,120.77,760.51,120.57,760,120.36Z"/><path class="cls-3" d="M719.09,141.78H705.7L688,182.18h13.85l2.71-7H720l2.7,7h14.09Zm2,20.06c-.67.07-1.36.09-2,.2a18.51,18.51,0,0,0-2.51.65,4.47,4.47,0,0,0-1.41.72,3.58,3.58,0,0,0-.86,1.25c-.2.39-.24.86-.41,1.27a8.46,8.46,0,0,0-.34,1.19,13.48,13.48,0,0,0-.22,2.3.69.69,0,0,1-.21.59c-.17.14-.31.32-.57.26s-.59-.45-.55-.67a8.16,8.16,0,0,0-.23-2,12.94,12.94,0,0,0-.59-2.42,3.61,3.61,0,0,0-1.08-1.66,4.85,4.85,0,0,0-1.65-.87,11.11,11.11,0,0,0-2.81-.62c-.48-.05-1-.14-1.46-.16a.89.89,0,0,1-.61-.62.45.45,0,0,1,.4-.53c.17,0,.32-.17.49-.18.59,0,1.16-.09,1.74-.17a11.41,11.41,0,0,0,3.49-1.07,2.48,2.48,0,0,0,1.08-1.07,8.69,8.69,0,0,0,.82-2.34,11,11,0,0,0,.4-2.8.77.77,0,0,1,.51-.83s.09-.08.14-.13c.16.1.39.17.48.32a1.42,1.42,0,0,1,.2.67,14.46,14.46,0,0,0,.78,4.08,3.66,3.66,0,0,0,1,1.77,4.81,4.81,0,0,0,1.58.8,7.16,7.16,0,0,0,2.53.57c.45.31,1,.17,1.45.19a1.54,1.54,0,0,1,.6.17c.3.13.49.26.46.59A.91.91,0,0,1,721.11,161.84Z"/><rect class="cls-4" x="738.95" y="141.78" width="13.62" height="40.4"/><path class="cls-5" d="M96.89,202.31a50,50,0,0,1-6.24,1,81.74,81.74,0,0,1-8.41.58,35.47,35.47,0,0,1-7.25-.58,13,13,0,0,1-5.22-2.17,9.36,9.36,0,0,1-3.19-4.48,21.19,21.19,0,0,1-1-7.51v-27.9H31.19v41.05a50.66,50.66,0,0,1-6.24,1,82.21,82.21,0,0,1-8.27.58,35.41,35.41,0,0,1-7.25-.58,13,13,0,0,1-5.22-2.17A9.36,9.36,0,0,1,1,196.67a21.19,21.19,0,0,1-1-7.51V94.76c1.31-.29,3.34-.57,6.24-1a56,56,0,0,1,8.26-.58,36.23,36.23,0,0,1,7.26.58A13.38,13.38,0,0,1,27,95.92a9.43,9.43,0,0,1,3.19,4.48,21.77,21.77,0,0,1,1,7.52v28.62H65.56V94.76c1.31-.29,3.34-.57,6.24-1a56.09,56.09,0,0,1,8.27-.58,36.19,36.19,0,0,1,7.25.58,13.38,13.38,0,0,1,5.22,2.17,9.36,9.36,0,0,1,3.19,4.48,21.77,21.77,0,0,1,1,7.52v94.39Z"/><path class="cls-6" d="M117.78,117.46a41.5,41.5,0,0,1,5.66-1,71.14,71.14,0,0,1,8-.58,35.85,35.85,0,0,1,7.11.58,10.77,10.77,0,0,1,8.56,6.5,19.93,19.93,0,0,1,1.16,7.23v38.45c0,4.91,1.16,8.38,3.62,10.41s5.81,3.18,10.45,3.18a27.21,27.21,0,0,0,6.67-.73,25,25,0,0,0,4.06-1.44V117.46a41.81,41.81,0,0,1,5.66-1,71.15,71.15,0,0,1,8-.58,35.68,35.68,0,0,1,7.1.58,10.16,10.16,0,0,1,5.23,2.16,12.51,12.51,0,0,1,3.33,4.34,19.71,19.71,0,0,1,1.16,7.23v54.35A14.63,14.63,0,0,1,196,198,48,48,0,0,1,181,203.9a85.75,85.75,0,0,1-18.86,2,68.84,68.84,0,0,1-17.84-2.16,38.64,38.64,0,0,1-14.07-6.65,30.27,30.27,0,0,1-9.14-11.57c-2.17-4.77-3.19-10.41-3.19-17.06v-51Z"/><path class="cls-7" d="M222.5,86.67c1.16-.29,3.05-.72,5.8-1.16a50.53,50.53,0,0,1,8.13-.58,36.45,36.45,0,0,1,7.1.58,10,10,0,0,1,5.23,2.17A12.19,12.19,0,0,1,252,92a20.24,20.24,0,0,1,1,7.22v17.5a42.59,42.59,0,0,1,8.56-2.46,55.54,55.54,0,0,1,8.85-.72,44.66,44.66,0,0,1,16.39,3,39.6,39.6,0,0,1,22.92,23.27c2.32,5.79,3.33,12.29,3.33,19.81a53.74,53.74,0,0,1-3.48,20.23,40.94,40.94,0,0,1-9.72,14.46A42.88,42.88,0,0,1,284.44,203a63.05,63.05,0,0,1-20,2.89c-7.83,0-14.65-.86-20-2.74a51.91,51.91,0,0,1-13.93-6.94q-7.83-5.64-7.83-14.31V86.67Zm42.07,95.26c5.51,0,9.71-1.88,12.76-5.64S282,167,282,159.52s-1.59-13.15-4.64-16.77-7.25-5.49-12.62-5.49a25.8,25.8,0,0,0-6.24.72,28.5,28.5,0,0,0-5.65,2.17v39a14.52,14.52,0,0,0,4.78,2,31.5,31.5,0,0,0,7,.72Z"/><path class="cls-8" d="M422,138.57a38.88,38.88,0,0,0-16.32-8l21.49-21.83V84.64H340.3v29.63H382l-17.2,17.48v24.13h15.48q7.5,0,10.66,2.08a6.69,6.69,0,0,1,3.16,5.91,7.22,7.22,0,0,1-4.25,6.75,23.28,23.28,0,0,1-10.9,2.24,63.49,63.49,0,0,1-15.56-2.08,60.75,60.75,0,0,1-15.73-6.41l-13.32,29A78.7,78.7,0,0,0,356,201.16a115.08,115.08,0,0,0,24.3,2.66q18.64,0,30.38-5.82t17.31-15a36.29,36.29,0,0,0,5.58-19.15Q433.52,148.39,422,138.57Z"/><path class="cls-9" d="M525.32,130.33a43.18,43.18,0,0,0-19.72-4.58,45,45,0,0,0-14.32,2.08,32.39,32.39,0,0,0-8.78,4.53,24,24,0,0,1,6.37-12.85q7.06-7.07,18.89-7.07a45.85,45.85,0,0,1,10.74,1.25,30.07,30.07,0,0,1,10.4,4.91l14.15-27.47a53.9,53.9,0,0,0-16.23-6.74A81,81,0,0,0,506.93,82q-19.14,0-33.71,7.65a55.11,55.11,0,0,0-22.72,22.06q-8.16,14.4-8.16,34.87,0,19,7.08,31.71a46,46,0,0,0,19.64,19.15q12.57,6.41,29.21,6.4a56,56,0,0,0,23.89-5,41.51,41.51,0,0,0,17.06-14.15q6.33-9.15,6.33-21.64,0-11.49-5.58-19.81A38,38,0,0,0,525.32,130.33ZM506.1,171.2a10.14,10.14,0,0,1-4.25,4.08,13.46,13.46,0,0,1-6.24,1.41,13,13,0,0,1-6.16-1.41,10.73,10.73,0,0,1-4.24-4.08,13.38,13.38,0,0,1,0-12.65,11.14,11.14,0,0,1,4.24-4.16,12.33,12.33,0,0,1,6.16-1.5,11.9,11.9,0,0,1,8.66,3.24,11.69,11.69,0,0,1,3.32,8.74A12.72,12.72,0,0,1,506.1,171.2Z"/><path class="cls-10" d="M642.84,144.15q-4.74-8.4-15.14-13.4t-27.72-5h-6l.89-11.48h45.08V84.64h-77.4l-5.83,70.74h33.79a45.25,45.25,0,0,1,10.9,1q3.75,1,5.25,2.92a6.93,6.93,0,0,1,1.5,4.41,7.39,7.39,0,0,1-4.33,6.82,23,23,0,0,1-11,2.33,62.57,62.57,0,0,1-15.48-2.08,61.24,61.24,0,0,1-15.65-6.41l-13.31,29A78.59,78.59,0,0,0,570,201.16a115.08,115.08,0,0,0,24.3,2.66q18.64,0,30.38-5.91T642,182.6a38.07,38.07,0,0,0,5.58-19.72A37.37,37.37,0,0,0,642.84,144.15Z"/><circle class="cls-11" cx="661.34" cy="196.85" r="9.49"/><path class="cls-12" d="M2.17,60.46v-57H25.64a31.45,31.45,0,0,1,13,2.45,18.82,18.82,0,0,1,8.35,7,19.61,19.61,0,0,1,2.94,10.84A19.56,19.56,0,0,1,47,34.55a18.84,18.84,0,0,1-8.35,7,31.45,31.45,0,0,1-13,2.44H8l4.73-5V60.46Zm10.6-20.29L8,35H25.15q7,0,10.56-3a10.33,10.33,0,0,0,3.54-8.36q0-5.46-3.54-8.39T25.15,12.39H8l4.73-5.22Z"/><path class="cls-13" d="M78.94,61A24.1,24.1,0,0,1,67,58.14a21.58,21.58,0,0,1-8.23-7.94,22,22,0,0,1-3-11.49,21.92,21.92,0,0,1,3-11.53A21.33,21.33,0,0,1,67,19.31a24.41,24.41,0,0,1,11.9-2.85,24.83,24.83,0,0,1,12,2.85,21.17,21.17,0,0,1,8.23,7.83,22.11,22.11,0,0,1,3,11.57,22.25,22.25,0,0,1-3,11.49A21.3,21.3,0,0,1,91,58.14,24.51,24.51,0,0,1,78.94,61Zm0-8.71a13.62,13.62,0,0,0,6.68-1.63A11.59,11.59,0,0,0,90.22,46a15,15,0,0,0,1.67-7.25,14.94,14.94,0,0,0-1.67-7.3,11.58,11.58,0,0,0-4.6-4.68,14.26,14.26,0,0,0-13.24,0,11.93,11.93,0,0,0-4.61,4.68,14.73,14.73,0,0,0-1.71,7.3A14.75,14.75,0,0,0,67.77,46a11.93,11.93,0,0,0,4.61,4.73A13.16,13.16,0,0,0,78.94,52.32Z"/><path class="cls-14" d="M120.33,60.46,104.36,17H114l13.7,38.38H123.1L137.44,17H146l13.93,38.38h-4.48L169.55,17h9L162.54,60.46h-9.78l-12.71-34h3l-13,34Z"/><path class="cls-15" d="M204.84,61a26.51,26.51,0,0,1-12.68-2.89,20.94,20.94,0,0,1-8.39-7.94,22.25,22.25,0,0,1-3-11.49,22.62,22.62,0,0,1,2.89-11.53,20.74,20.74,0,0,1,8-7.87,23.4,23.4,0,0,1,11.62-2.85,22.93,22.93,0,0,1,11.32,2.77,20.16,20.16,0,0,1,7.83,7.82A23.84,23.84,0,0,1,225.29,39c0,.44,0,.93,0,1.47s-.07,1.06-.12,1.55H188.86V35.2h30.89l-4,2.12a12.5,12.5,0,0,0-1.54-6.6,12,12,0,0,0-4.45-4.48,12.62,12.62,0,0,0-6.47-1.63,12.8,12.8,0,0,0-6.56,1.63,11.46,11.46,0,0,0-4.4,4.52,13.93,13.93,0,0,0-1.59,6.81V39.2a13.24,13.24,0,0,0,1.79,6.92,12,12,0,0,0,5.05,4.65,16.62,16.62,0,0,0,7.5,1.63,18.13,18.13,0,0,0,6.6-1.14,14.07,14.07,0,0,0,5.21-3.59L222.35,54A19.1,19.1,0,0,1,215,59.2,26.42,26.42,0,0,1,204.84,61Z"/><path class="cls-16" d="M235.07,60.46V17h9.69v12l-1.14-3.51a13.8,13.8,0,0,1,6.16-6.68,21.69,21.69,0,0,1,10.47-2.28v9.7A7.55,7.55,0,0,0,259,26c-.38,0-.76,0-1.14,0a12.53,12.53,0,0,0-9.2,3.38q-3.44,3.39-3.43,10.07v21.1Z"/><path class="cls-17" d="M288.93,61a26.47,26.47,0,0,1-12.67-2.89,20.94,20.94,0,0,1-8.39-7.94,22.16,22.16,0,0,1-3-11.49,22.62,22.62,0,0,1,2.9-11.53,20.67,20.67,0,0,1,8-7.87,23.39,23.39,0,0,1,11.61-2.85,23,23,0,0,1,11.33,2.77,20.13,20.13,0,0,1,7.82,7.82A23.85,23.85,0,0,1,309.39,39c0,.44,0,.93-.05,1.47s-.07,1.06-.12,1.55H273V35.2h30.88l-4,2.12a12.5,12.5,0,0,0-1.55-6.6,11.93,11.93,0,0,0-4.44-4.48,12.63,12.63,0,0,0-6.48-1.63,12.82,12.82,0,0,0-6.56,1.63,11.59,11.59,0,0,0-4.4,4.52,13.93,13.93,0,0,0-1.59,6.81V39.2a13.25,13.25,0,0,0,1.8,6.92,12,12,0,0,0,5.05,4.65,16.62,16.62,0,0,0,7.5,1.63,18.13,18.13,0,0,0,6.6-1.14A14.07,14.07,0,0,0,301,47.67L306.45,54a19.17,19.17,0,0,1-7.37,5.25A26.51,26.51,0,0,1,288.93,61Z"/><path class="cls-18" d="M337.58,61a22.63,22.63,0,0,1-11.29-2.81,20.33,20.33,0,0,1-7.86-7.78,23.16,23.16,0,0,1-2.85-11.73A23.23,23.23,0,0,1,318.43,27a20.16,20.16,0,0,1,7.86-7.74,23,23,0,0,1,11.29-2.77,19.79,19.79,0,0,1,9.78,2.4,17,17,0,0,1,6.84,7.3q2.54,4.89,2.53,12.55a28.13,28.13,0,0,1-2.45,12.51,16.74,16.74,0,0,1-6.76,7.37A19.82,19.82,0,0,1,337.58,61Zm1.22-8.71a13.19,13.19,0,0,0,6.56-1.63A12.23,12.23,0,0,0,350,46a14.54,14.54,0,0,0,1.75-7.25,14.53,14.53,0,0,0-1.75-7.3,12.23,12.23,0,0,0-4.65-4.68,14,14,0,0,0-13.12,0,12.13,12.13,0,0,0-4.64,4.68,14.43,14.43,0,0,0-1.76,7.3A14.44,14.44,0,0,0,327.6,46a12.13,12.13,0,0,0,4.64,4.73A13.22,13.22,0,0,0,338.8,52.32ZM352,60.46V50.2l.41-11.57-.81-11.58V0h10.1V60.46Z"/><path class="cls-19" d="M397.63,60.46V0h10.19V27.05L407,38.63l.32,11.57V60.46Zm24.12.57a19.67,19.67,0,0,1-9.86-2.44,17,17,0,0,1-6.8-7.37,27.69,27.69,0,0,1-2.49-12.51q0-7.66,2.57-12.55a17.2,17.2,0,0,1,6.93-7.3,19.65,19.65,0,0,1,9.65-2.4,22.88,22.88,0,0,1,11.37,2.77A20.63,20.63,0,0,1,441,27a23,23,0,0,1,2.89,11.74A23,23,0,0,1,441,50.44a20.81,20.81,0,0,1-7.83,7.78A22.48,22.48,0,0,1,421.75,61Zm-1.14-8.71a13.16,13.16,0,0,0,6.56-1.63A11.93,11.93,0,0,0,431.78,46a14.75,14.75,0,0,0,1.71-7.25,14.73,14.73,0,0,0-1.71-7.3,11.93,11.93,0,0,0-4.61-4.68,13.06,13.06,0,0,0-6.56-1.63,13.34,13.34,0,0,0-6.6,1.63,11.87,11.87,0,0,0-4.64,4.68,14.73,14.73,0,0,0-1.71,7.3A14.75,14.75,0,0,0,409.37,46,11.87,11.87,0,0,0,414,50.69,13.45,13.45,0,0,0,420.61,52.32Z"/><path class="cls-20" d="M455.9,76.84a19.91,19.91,0,0,1-6.36-1.06,15,15,0,0,1-5.3-2.93l4.08-7.5a12.11,12.11,0,0,0,3.5,2.2,10.23,10.23,0,0,0,4,.82A6.87,6.87,0,0,0,460.3,67a12.54,12.54,0,0,0,3.18-4.64L466,56.63l.82-1.22L483.28,17h9.78L472.68,64a28.06,28.06,0,0,1-4.52,7.74,13.74,13.74,0,0,1-5.54,4A19.11,19.11,0,0,1,455.9,76.84Zm9-14.83L445.22,17h10.6l16,37.57Z"/><path class="cls-21" d="M503.08,30a6.61,6.61,0,0,1-6.68-6.77,6.46,6.46,0,0,1,2-4.93,7,7,0,0,1,9.45,0,6.43,6.43,0,0,1,2,4.93A6.63,6.63,0,0,1,503.08,30Zm0,31a6.59,6.59,0,0,1-6.68-6.76,6.45,6.45,0,0,1,2-4.93,7,7,0,0,1,9.45,0,7.08,7.08,0,0,1,0,9.78A6.48,6.48,0,0,1,503.08,61Z"/></g></g></svg>
