<svg xmlns="http://www.w3.org/2000/svg" xmlns:xlink="http://www.w3.org/1999/xlink" viewBox="0 0 764.41 217.03"><defs><style>.cls-1{fill:url(#Degradado_sin_nombre_125);}.cls-2{fill:url(#Degradado_sin_nombre_125-2);}.cls-3{fill:url(#Degradado_sin_nombre_125-3);}.cls-4{fill:url(#Degradado_sin_nombre_125-4);}.cls-5{fill:#606060;}.cls-6{fill:url(#Degradado_sin_nombre_125-5);}.cls-7{fill:url(#Degradado_sin_nombre_125-6);}.cls-8{fill:url(#Degradado_sin_nombre_125-7);}.cls-9{fill:url(#Degradado_sin_nombre_125-8);}.cls-10{fill:url(#Degradado_sin_nombre_125-9);}.cls-11{fill:url(#Degradado_sin_nombre_125-10);}.cls-12{fill:#5ce0e6;}.cls-13{fill:url(#Degradado_sin_nombre_125-11);}.cls-14{fill:url(#Degradado_sin_nombre_125-12);}.cls-15{fill:url(#Degradado_sin_nombre_125-13);}.cls-16{fill:url(#Degradado_sin_nombre_125-14);}.cls-17{fill:url(#Degradado_sin_nombre_125-15);}.cls-18{fill:url(#Degradado_sin_nombre_125-16);}.cls-19{fill:url(#Degradado_sin_nombre_125-17);}.cls-20{fill:url(#Degradado_sin_nombre_125-18);}.cls-21{fill:url(#Degradado_sin_nombre_125-19);}.cls-22{fill:url(#Degradado_sin_nombre_125-20);}</style><linearGradient id="Degradado_sin_nombre_125" x1="833.79" y1="232.85" x2="671.07" y2="146.76" gradientUnits="userSpaceOnUse"><stop offset="0" stop-color="#f0f"/><stop offset="1" stop-color="#5ce1e6"/></linearGradient><linearGradient id="Degradado_sin_nombre_125-2" x1="807.82" y1="163.86" x2="704.99" y2="109.46" xlink:href="#Degradado_sin_nombre_125"/><linearGradient id="Degradado_sin_nombre_125-3" x1="765.61" y1="190.87" x2="709.78" y2="173.87" xlink:href="#Degradado_sin_nombre_125"/><linearGradient id="Degradado_sin_nombre_125-4" x1="769.19" y1="179.11" x2="713.35" y2="162.12" xlink:href="#Degradado_sin_nombre_125"/><linearGradient id="Degradado_sin_nombre_125-5" x1="-59.41" y1="157.1" x2="593.18" y2="165.8" xlink:href="#Degradado_sin_nombre_125"/><linearGradient id="Degradado_sin_nombre_125-6" x1="-59.55" y1="167.78" x2="593.04" y2="176.48" xlink:href="#Degradado_sin_nombre_125"/><linearGradient id="Degradado_sin_nombre_125-7" x1="-59.33" y1="151.3" x2="593.26" y2="160" xlink:href="#Degradado_sin_nombre_125"/><linearGradient id="Degradado_sin_nombre_125-8" x1="-59.29" y1="148.06" x2="593.3" y2="156.76" xlink:href="#Degradado_sin_nombre_125"/><linearGradient id="Degradado_sin_nombre_125-9" x1="-59.26" y1="145.41" x2="593.34" y2="154.11" xlink:href="#Degradado_sin_nombre_125"/><linearGradient id="Degradado_sin_nombre_125-10" x1="-59.25" y1="145.22" x2="593.34" y2="153.92" xlink:href="#Degradado_sin_nombre_125"/><linearGradient id="Degradado_sin_nombre_125-11" x1="134.76" y1="31.81" x2="644" y2="-34.72" xlink:href="#Degradado_sin_nombre_125"/><linearGradient id="Degradado_sin_nombre_125-12" x1="136.83" y1="47.68" x2="646.07" y2="-18.85" xlink:href="#Degradado_sin_nombre_125"/><linearGradient id="Degradado_sin_nombre_125-13" x1="137.74" y1="54.64" x2="646.98" y2="-11.89" xlink:href="#Degradado_sin_nombre_125"/><linearGradient id="Degradado_sin_nombre_125-14" x1="138.93" y1="63.77" x2="648.17" y2="-2.76" xlink:href="#Degradado_sin_nombre_125"/><linearGradient id="Degradado_sin_nombre_125-15" x1="139.53" y1="68.34" x2="648.77" y2="1.82" xlink:href="#Degradado_sin_nombre_125"/><linearGradient id="Degradado_sin_nombre_125-16" x1="140.34" y1="74.57" x2="649.59" y2="8.04" xlink:href="#Degradado_sin_nombre_125"/><linearGradient id="Degradado_sin_nombre_125-17" x1="140.4" y1="74.97" x2="649.64" y2="8.45" xlink:href="#Degradado_sin_nombre_125"/><linearGradient id="Degradado_sin_nombre_125-18" x1="141.34" y1="82.18" x2="650.58" y2="15.66" xlink:href="#Degradado_sin_nombre_125"/><linearGradient id="Degradado_sin_nombre_125-19" x1="144.12" y1="103.51" x2="653.37" y2="36.99" xlink:href="#Degradado_sin_nombre_125"/><linearGradient id="Degradado_sin_nombre_125-20" x1="143.95" y1="102.15" x2="653.19" y2="35.63" xlink:href="#Degradado_sin_nombre_125"/></defs><title>Powered by hub365 ai v1</title><g id="Capa_2" data-name="Capa 2"><g id="Capa_1-2" data-name="Capa 1"><path class="cls-1" d="M763.49,136.41a1.7,1.7,0,0,0-2.52,1.37c0,.56,0,1.13,0,1.7,0,11.91,0,47.81,0,59.72a9.7,9.7,0,0,1-.47,3,15.3,15.3,0,0,1-3.33,6.15A15.68,15.68,0,0,1,745,213.5c-16.12.14-32.24.07-48.36,0a13.29,13.29,0,0,1-4.59-.64c-3.13-1.16-6-2.58-8.18-5.52a15,15,0,0,1-3.12-9.18c0-16.85,0-33.7-.06-50.55a13.46,13.46,0,0,1,1.3-5.55c2.65-6.07,7.63-9,14-9.17,10-.24,12.09-.07,22.13-.07,2.35,0,4.7,0,7.05,0,.64,0,1.21-.15,1.4-.68a1.88,1.88,0,0,0-.3-2,2.42,2.42,0,0,0-2.13-.77c-12.39,0-16.79,0-29.18,0a12.1,12.1,0,0,0-3.88.59c-4.36,1.54-8.24,3.82-10.8,7.85a18.08,18.08,0,0,0-3,10.19c.11,8.26,0,16.52,0,24.79,0,8.5,0,17,0,25.52a18.83,18.83,0,0,0,2.93,10,16.63,16.63,0,0,0,5.85,5.64c1.21.72,2.63,1.1,3.88,1.77,1.53.82,3.32.41,4.87,1.14a4.53,4.53,0,0,0,1.69,0c13,0,26.08.06,39.13,0,4.22,0,8.46.41,12.69-.39a27.37,27.37,0,0,0,5-1.46,17.52,17.52,0,0,0,9.06-8.48,14.58,14.58,0,0,0,1.92-7c0-12.23,0-48.46,0-60.7a7,7,0,0,1,0-1.45C764.54,136.68,764,136.62,763.49,136.41Z"/><path class="cls-2" d="M760,130.36a2.78,2.78,0,0,0-1-.28c-.79,0-1.61.2-2.33-.3a11.42,11.42,0,0,1-4.07-.91,7.89,7.89,0,0,1-2.54-1.28,6,6,0,0,1-1.64-2.85,22.76,22.76,0,0,1-1.26-6.54,2.3,2.3,0,0,0-.32-1.09c-.15-.23-.51-.34-.77-.51-.08.08-.14.19-.23.22a1.23,1.23,0,0,0-.81,1.33,18.31,18.31,0,0,1-.65,4.49,13.41,13.41,0,0,1-1.32,3.75,3.89,3.89,0,0,1-1.73,1.72,18.43,18.43,0,0,1-5.59,1.72c-.93.14-1.86.22-2.79.27a6.42,6.42,0,0,0-.8.29.73.73,0,0,0-.64.86,1.4,1.4,0,0,0,1,1c.78,0,1.56.19,2.33.26a17.73,17.73,0,0,1,4.52,1,7.93,7.93,0,0,1,2.65,1.39,5.85,5.85,0,0,1,1.73,2.67,21,21,0,0,1,1,3.89,13.12,13.12,0,0,1,.36,3.25c-.06.35.53,1,.89,1.07s.63-.18.91-.41a1.13,1.13,0,0,0,.34-.95,20.6,20.6,0,0,1,.36-3.69,12.23,12.23,0,0,1,.54-1.92c.27-.65.34-1.4.65-2a6,6,0,0,1,1.38-2,7.25,7.25,0,0,1,2.27-1.15,28.22,28.22,0,0,1,4-1c1.07-.19,2.16-.22,3.25-.33a1.44,1.44,0,0,0,1-.94C760.81,130.77,760.51,130.57,760,130.36Z"/><polygon class="cls-3" points="705.7 151.78 688.04 192.19 701.89 192.19 704.6 185.15 719.97 185.15 722.67 192.19 736.76 192.19 719.09 151.78 705.7 151.78"/><rect class="cls-4" x="738.95" y="151.78" width="13.62" height="40.4"/><path class="cls-5" d="M721.3,170.67a1.54,1.54,0,0,0-.6-.17c-.48,0-1,.13-1.45-.19a7.16,7.16,0,0,1-2.53-.57,4.79,4.79,0,0,1-1.58-.79,3.69,3.69,0,0,1-1-1.78,14.39,14.39,0,0,1-.78-4.07,1.46,1.46,0,0,0-.2-.68c-.09-.15-.32-.22-.48-.32,0,.05-.09.12-.14.14a.76.76,0,0,0-.51.82,11.09,11.09,0,0,1-.4,2.81,8.51,8.51,0,0,1-.82,2.33,2.48,2.48,0,0,1-1.08,1.07,11.71,11.71,0,0,1-3.49,1.08c-.58.08-1.15.13-1.74.16-.17,0-.32.14-.49.18a.45.45,0,0,0-.4.54.89.89,0,0,0,.61.61c.49,0,1,.12,1.46.16a11.11,11.11,0,0,1,2.81.62,4.85,4.85,0,0,1,1.65.87,3.67,3.67,0,0,1,1.08,1.66,12.85,12.85,0,0,1,.59,2.43,8,8,0,0,1,.23,2c0,.22.33.61.55.67s.4-.11.57-.26a.67.67,0,0,0,.21-.58,13.5,13.5,0,0,1,.22-2.31,8.86,8.86,0,0,1,.34-1.19c.17-.41.21-.87.41-1.27a3.58,3.58,0,0,1,.86-1.25,4.47,4.47,0,0,1,1.41-.72,18.47,18.47,0,0,1,2.51-.64c.66-.12,1.34-.14,2-.2a.92.92,0,0,0,.65-.59C721.79,170.93,721.6,170.8,721.3,170.67Z"/><path class="cls-6" d="M96.89,212.31a50,50,0,0,1-6.24,1,81.74,81.74,0,0,1-8.41.58,35.47,35.47,0,0,1-7.25-.58,13,13,0,0,1-5.22-2.17,9.36,9.36,0,0,1-3.19-4.48,21.19,21.19,0,0,1-1-7.51v-27.9H31.19v41.05a50.66,50.66,0,0,1-6.24,1,82.21,82.21,0,0,1-8.27.58,35.41,35.41,0,0,1-7.25-.58,13,13,0,0,1-5.22-2.17A9.36,9.36,0,0,1,1,206.67a21.19,21.19,0,0,1-1-7.51v-94.4c1.31-.29,3.34-.57,6.24-1a56,56,0,0,1,8.26-.58,36.23,36.23,0,0,1,7.26.58A13.38,13.38,0,0,1,27,105.92a9.43,9.43,0,0,1,3.19,4.48,21.77,21.77,0,0,1,1,7.52v28.62H65.56V104.76c1.31-.29,3.34-.57,6.24-1a56.09,56.09,0,0,1,8.27-.58,36.19,36.19,0,0,1,7.25.58,13.38,13.38,0,0,1,5.22,2.17,9.36,9.36,0,0,1,3.19,4.48,21.77,21.77,0,0,1,1,7.52v94.39Z"/><path class="cls-7" d="M117.78,127.46a41.5,41.5,0,0,1,5.66-1,71.14,71.14,0,0,1,8-.58,35.85,35.85,0,0,1,7.11.58,10.77,10.77,0,0,1,8.56,6.5,19.93,19.93,0,0,1,1.16,7.23v38.45c0,4.91,1.16,8.38,3.62,10.41s5.81,3.18,10.45,3.18a27.21,27.21,0,0,0,6.67-.73,25,25,0,0,0,4.06-1.44V127.46a41.81,41.81,0,0,1,5.66-1,71.15,71.15,0,0,1,8-.58,35.68,35.68,0,0,1,7.1.58,10.16,10.16,0,0,1,5.23,2.16,12.51,12.51,0,0,1,3.33,4.34,19.71,19.71,0,0,1,1.16,7.23v54.35A14.63,14.63,0,0,1,196,208,48,48,0,0,1,181,213.9a85.75,85.75,0,0,1-18.86,2,68.84,68.84,0,0,1-17.84-2.16,38.64,38.64,0,0,1-14.07-6.65,30.27,30.27,0,0,1-9.14-11.57c-2.17-4.77-3.19-10.41-3.19-17.06v-51Z"/><path class="cls-8" d="M222.5,96.67c1.16-.29,3.05-.72,5.8-1.16a50.53,50.53,0,0,1,8.13-.58,36.45,36.45,0,0,1,7.1.58,10,10,0,0,1,5.23,2.17A12.19,12.19,0,0,1,252,102a20.24,20.24,0,0,1,1,7.22v17.5a42.59,42.59,0,0,1,8.56-2.46,55.54,55.54,0,0,1,8.85-.72,44.66,44.66,0,0,1,16.39,3,39.6,39.6,0,0,1,22.92,23.27c2.32,5.79,3.33,12.29,3.33,19.81a53.74,53.74,0,0,1-3.48,20.23,40.94,40.94,0,0,1-9.72,14.46A42.88,42.88,0,0,1,284.44,213a63.05,63.05,0,0,1-20,2.89c-7.83,0-14.65-.86-20-2.74a51.91,51.91,0,0,1-13.93-6.94q-7.83-5.64-7.83-14.31V96.67Zm42.07,95.26c5.51,0,9.71-1.88,12.76-5.64S282,177,282,169.52s-1.59-13.15-4.64-16.77-7.25-5.49-12.62-5.49a25.8,25.8,0,0,0-6.24.72,28.5,28.5,0,0,0-5.65,2.17v39a14.52,14.52,0,0,0,4.78,2,31.5,31.5,0,0,0,7,.72Z"/><path class="cls-9" d="M422,148.57a38.88,38.88,0,0,0-16.32-8l21.49-21.83V94.64H340.3v29.63H382l-17.2,17.48v24.13h15.48q7.5,0,10.66,2.08a6.69,6.69,0,0,1,3.16,5.91,7.22,7.22,0,0,1-4.25,6.75,23.28,23.28,0,0,1-10.9,2.24,63.49,63.49,0,0,1-15.56-2.08,60.75,60.75,0,0,1-15.73-6.41l-13.32,29A78.7,78.7,0,0,0,356,211.16a115.08,115.08,0,0,0,24.3,2.66q18.64,0,30.38-5.82t17.31-15a36.29,36.29,0,0,0,5.58-19.15Q433.52,158.39,422,148.57Z"/><path class="cls-10" d="M525.32,140.33a43.18,43.18,0,0,0-19.72-4.58,45,45,0,0,0-14.32,2.08,32.39,32.39,0,0,0-8.78,4.53,24,24,0,0,1,6.37-12.85q7.06-7.06,18.89-7.07a45.85,45.85,0,0,1,10.74,1.25,30.07,30.07,0,0,1,10.4,4.91l14.15-27.47a53.9,53.9,0,0,0-16.23-6.74A81,81,0,0,0,506.93,92q-19.14,0-33.71,7.65a55.11,55.11,0,0,0-22.72,22.06q-8.16,14.4-8.16,34.87,0,19,7.08,31.71a46,46,0,0,0,19.64,19.15q12.57,6.41,29.21,6.4a56,56,0,0,0,23.89-5,41.51,41.51,0,0,0,17.06-14.15q6.33-9.15,6.33-21.64,0-11.49-5.58-19.81A38,38,0,0,0,525.32,140.33ZM506.1,181.2a10.14,10.14,0,0,1-4.25,4.08,13.46,13.46,0,0,1-6.24,1.41,13,13,0,0,1-6.16-1.41,10.73,10.73,0,0,1-4.24-4.08,13.38,13.38,0,0,1,0-12.65,11.14,11.14,0,0,1,4.24-4.16,12.33,12.33,0,0,1,6.16-1.5,11.9,11.9,0,0,1,8.66,3.24,11.69,11.69,0,0,1,3.32,8.74A12.72,12.72,0,0,1,506.1,181.2Z"/><path class="cls-11" d="M642.84,154.15q-4.74-8.4-15.14-13.4t-27.72-5h-6l.89-11.48h45.08V94.64h-77.4l-5.83,70.74h33.79a45.25,45.25,0,0,1,10.9,1q3.75,1,5.25,2.92a6.93,6.93,0,0,1,1.5,4.41,7.39,7.39,0,0,1-4.33,6.82,23,23,0,0,1-11,2.33,62.57,62.57,0,0,1-15.48-2.08,61.24,61.24,0,0,1-15.65-6.41l-13.31,29A78.59,78.59,0,0,0,570,211.16a115.08,115.08,0,0,0,24.3,2.66q18.64,0,30.38-5.91T642,192.6a38.07,38.07,0,0,0,5.58-19.72A37.37,37.37,0,0,0,642.84,154.15Z"/><circle class="cls-12" cx="661.34" cy="206.85" r="9.49"/><path class="cls-13" d="M128.41,60.46v-57h23.47a31.45,31.45,0,0,1,13,2.45,18.82,18.82,0,0,1,8.35,7,19.6,19.6,0,0,1,2.93,10.84,19.55,19.55,0,0,1-2.93,10.84,18.84,18.84,0,0,1-8.35,7,31.45,31.45,0,0,1-13,2.44h-17.6L139,39V60.46ZM139,40.17,134.28,35h17.11q7,0,10.55-3a10.3,10.3,0,0,0,3.55-8.36q0-5.46-3.55-8.39t-10.55-2.93H134.28L139,7.17Z"/><path class="cls-14" d="M205.18,61a24.07,24.07,0,0,1-11.9-2.89,21.58,21.58,0,0,1-8.23-7.94,22,22,0,0,1-3-11.49,21.92,21.92,0,0,1,3-11.53,21.33,21.33,0,0,1,8.23-7.87,24.38,24.38,0,0,1,11.9-2.85,24.79,24.79,0,0,1,12,2.85,21.13,21.13,0,0,1,8.24,7.83,22.11,22.11,0,0,1,3,11.57,22.25,22.25,0,0,1-3,11.49,21.26,21.26,0,0,1-8.24,7.94A24.47,24.47,0,0,1,205.18,61Zm0-8.71a13.62,13.62,0,0,0,6.68-1.63,11.59,11.59,0,0,0,4.6-4.73,15.07,15.07,0,0,0,1.67-7.25,15.05,15.05,0,0,0-1.67-7.3,11.58,11.58,0,0,0-4.6-4.68,14.26,14.26,0,0,0-13.24,0A11.93,11.93,0,0,0,194,31.41a14.73,14.73,0,0,0-1.71,7.3A14.75,14.75,0,0,0,194,46a11.93,11.93,0,0,0,4.61,4.73A13.16,13.16,0,0,0,205.18,52.32Z"/><path class="cls-15" d="M246.57,60.46,230.6,17h9.61l13.7,38.38h-4.57L263.68,17h8.56l13.93,38.38h-4.48L295.79,17h9L288.78,60.46H279l-12.71-34h3l-13,34Z"/><path class="cls-16" d="M331.07,61a26.5,26.5,0,0,1-12.67-2.89A20.94,20.94,0,0,1,310,50.2a22.26,22.26,0,0,1-3-11.49,22.62,22.62,0,0,1,2.9-11.53,20.74,20.74,0,0,1,8-7.87,23.4,23.4,0,0,1,11.62-2.85,22.93,22.93,0,0,1,11.32,2.77,20.13,20.13,0,0,1,7.82,7.82A23.74,23.74,0,0,1,351.53,39c0,.44,0,.93,0,1.47s-.07,1.06-.12,1.55H315.1V35.2H346l-4,2.12a12.5,12.5,0,0,0-1.54-6.6A12,12,0,0,0,336,26.24a12.62,12.62,0,0,0-6.47-1.63A12.8,12.8,0,0,0,323,26.24a11.46,11.46,0,0,0-4.4,4.52A13.93,13.93,0,0,0,317,37.57V39.2a13.24,13.24,0,0,0,1.79,6.92,12,12,0,0,0,5.05,4.65,16.62,16.62,0,0,0,7.5,1.63,18.13,18.13,0,0,0,6.6-1.14,14.07,14.07,0,0,0,5.21-3.59L348.59,54a19.1,19.1,0,0,1-7.37,5.25A26.44,26.44,0,0,1,331.07,61Z"/><path class="cls-17" d="M361.31,60.46V17H371v12l-1.14-3.51A13.83,13.83,0,0,1,376,18.74a21.76,21.76,0,0,1,10.48-2.28v9.7a7.55,7.55,0,0,0-1.23-.21c-.38,0-.76,0-1.14,0a12.56,12.56,0,0,0-9.21,3.38q-3.42,3.39-3.42,10.07v21.1Z"/><path class="cls-18" d="M415.17,61a26.47,26.47,0,0,1-12.67-2.89,20.94,20.94,0,0,1-8.39-7.94,22.16,22.16,0,0,1-3-11.49A22.62,22.62,0,0,1,394,27.18a20.69,20.69,0,0,1,8-7.87,23.36,23.36,0,0,1,11.61-2.85A23,23,0,0,1,425,19.23a20.13,20.13,0,0,1,7.82,7.82A23.84,23.84,0,0,1,435.62,39c0,.44,0,.93,0,1.47s-.07,1.06-.12,1.55H399.2V35.2h30.88l-4,2.12a12.5,12.5,0,0,0-1.55-6.6,12,12,0,0,0-4.44-4.48,12.63,12.63,0,0,0-6.48-1.63,12.82,12.82,0,0,0-6.56,1.63,11.59,11.59,0,0,0-4.4,4.52,13.93,13.93,0,0,0-1.59,6.81V39.2a13.25,13.25,0,0,0,1.8,6.92,11.91,11.91,0,0,0,5.05,4.65,16.61,16.61,0,0,0,7.49,1.63A18.15,18.15,0,0,0,422,51.26a14.07,14.07,0,0,0,5.21-3.59L432.69,54a19.17,19.17,0,0,1-7.37,5.25A26.51,26.51,0,0,1,415.17,61Z"/><path class="cls-19" d="M463.82,61a22.6,22.6,0,0,1-11.29-2.81,20.33,20.33,0,0,1-7.86-7.78,23.16,23.16,0,0,1-2.85-11.73A23.23,23.23,0,0,1,444.67,27a20.16,20.16,0,0,1,7.86-7.74,23,23,0,0,1,11.29-2.77,19.79,19.79,0,0,1,9.78,2.4,17,17,0,0,1,6.84,7.3Q483,31.05,483,38.71a28.13,28.13,0,0,1-2.45,12.51,16.74,16.74,0,0,1-6.76,7.37A19.82,19.82,0,0,1,463.82,61ZM465,52.32a13.19,13.19,0,0,0,6.56-1.63A12.23,12.23,0,0,0,476.25,46,14.54,14.54,0,0,0,478,38.71a14.53,14.53,0,0,0-1.75-7.3,12.23,12.23,0,0,0-4.65-4.68,14,14,0,0,0-13.12,0,12.13,12.13,0,0,0-4.64,4.68,14.43,14.43,0,0,0-1.76,7.3A14.44,14.44,0,0,0,453.84,46a12.13,12.13,0,0,0,4.64,4.73A13.22,13.22,0,0,0,465,52.32Zm13.2,8.14V50.2l.41-11.57-.82-11.58V0h10.11V60.46Z"/><path class="cls-20" d="M523.87,60.46V0h10.19V27.05l-.82,11.58.33,11.57V60.46ZM548,61a19.67,19.67,0,0,1-9.86-2.44,17,17,0,0,1-6.8-7.37,27.69,27.69,0,0,1-2.49-12.51q0-7.66,2.57-12.55a17.2,17.2,0,0,1,6.93-7.3,19.65,19.65,0,0,1,9.65-2.4,22.9,22.9,0,0,1,11.37,2.77A20.54,20.54,0,0,1,567.18,27a22.94,22.94,0,0,1,2.9,11.74,22.88,22.88,0,0,1-2.9,11.73,20.71,20.71,0,0,1-7.82,7.78A22.51,22.51,0,0,1,548,61Zm-1.14-8.71a13.19,13.19,0,0,0,6.56-1.63A11.93,11.93,0,0,0,558,46a14.75,14.75,0,0,0,1.71-7.25,14.73,14.73,0,0,0-1.71-7.3,11.93,11.93,0,0,0-4.61-4.68,13.08,13.08,0,0,0-6.56-1.63,13.34,13.34,0,0,0-6.6,1.63,11.87,11.87,0,0,0-4.64,4.68,14.73,14.73,0,0,0-1.71,7.3A14.75,14.75,0,0,0,535.61,46a11.87,11.87,0,0,0,4.64,4.73A13.45,13.45,0,0,0,546.85,52.32Z"/><path class="cls-21" d="M582.14,76.84a19.91,19.91,0,0,1-6.36-1.06,15,15,0,0,1-5.3-2.93l4.08-7.5a12.11,12.11,0,0,0,3.5,2.2,10.22,10.22,0,0,0,4,.82A6.88,6.88,0,0,0,586.54,67a12.42,12.42,0,0,0,3.17-4.64l2.53-5.71.82-1.22L609.52,17h9.78L598.92,64a28.31,28.31,0,0,1-4.52,7.74,13.74,13.74,0,0,1-5.54,4A19.11,19.11,0,0,1,582.14,76.84Zm9-14.83L571.46,17h10.59l16,37.57Z"/><path class="cls-22" d="M629.32,30a6.61,6.61,0,0,1-6.68-6.77,6.46,6.46,0,0,1,2-4.93,7,7,0,0,1,9.45,0,6.43,6.43,0,0,1,2,4.93A6.63,6.63,0,0,1,629.32,30Zm0,31a6.59,6.59,0,0,1-6.68-6.76,6.45,6.45,0,0,1,2-4.93,7,7,0,0,1,9.45,0,7.08,7.08,0,0,1,0,9.78A6.48,6.48,0,0,1,629.32,61Z"/></g></g></svg>